<svg xmlns="http://www.w3.org/2000/svg" width="100%" viewBox="0 0 1400 1002" height="150" xmlns:v="https://vecta.io/nano"><path d="M875 1003H1V1h1400v1002H875M686.085 529.11c-4.498-.012-9.035-.376-13.478.11-2.277.249-5.618 1.472-6.377 3.186-5.358 12.086-10.289 24.367-15.129 36.676l-22.151 57.084-28.978 71.797-16.345 40.962-11.454 28.69 48.648.127c1.841-.021 4.653-1.824 5.328-3.486l18.986-48.238c.519-1.305 2.358-2.894 3.643-2.949 6.69-.287 13.4-.109 20.102-.112l71.468.077c1.862.013 4.827 1.233 5.398 2.65l18.451 47.442c.579 1.48 1.997 3.363 3.342 3.67 3.496.798 7.164 1.05 10.771 1.108 8.827.141 17.659.14 26.487.011 4.349-.063 8.692-.536 14.247-.904l-95.974-237.788c-9.215 0-18.642 0-28.943-.17-2.37.057-4.74.113-8.041.057m-238.76 51.199l-17.454 21.414-31.241 38.145-36.82 43.909-36.101 43.162c-1.2 1.446-2.474 3.35-2.573 5.105-.547 9.759-.847 19.535-1.014 29.309-.092 5.353 1.381 6.589 6.852 6.589l179.902-.053c2.667-.003 5.333-.713 8.093-1.107l.107-40.611c.112-4.804-1.308-6.249-6.138-6.224l-105.442.092h-9.446c.845-1.57 1.217-2.657 1.906-3.478l22.194-26.299 17.917-21.59 26.948-32.296 17.764-20.972 24.073-29.981c3.748-4.874 9.049-10.06 9.65-15.544 1.424-12.981.457-26.224.457-40.804l-42.853-.026-80.772-.047-54.253.078-15.724.797v49.077l23.657.001 100.951.562s-.055.443-.641.79m891.763-51.201c-13-.016-26.007-.286-38.994.113-3.674.113-8.384 1.099-10.762 3.514l-74.414 76.878c-4.784 4.973-9.441 10.068-14.113 15.148-2.385 2.594-4.672 5.279-7.815 8.844v-5.619l-.055-90.498c-.007-7.74-.027-8.093-7.614-8.261-13.492-.3-26.995-.215-40.49-.007-1.287.02-3.519 1.945-3.651 3.164-.672 6.236-1.067 12.53-1.074 18.804l-.075 209.495c-.001 6.511.817 7.258 7.564 7.25l38.499-.011c6.392.001 6.863-.439 6.869-6.79l-.034-64.498c-.022-3.562.784-6.204 3.457-8.738 7.459-7.07 14.621-14.451 21.926-21.685.885-.876 1.923-1.597 2.696-2.23l17.98 23.91 21.188 28.712 33.904 45.261c1.643 2.154 4.277 4.67 6.687 4.942 18.641 2.103 37.319 1.218 56.499-.269-32.735-45.943-67.62-89.896-101.524-135.114 34.547-32.698 68.711-65.702 101.659-100.331-1.807-1.026-3.215-1.265-4.632-1.372l-9.559-.692c-1.063.064-2.125.129-4.122.081M160.509 527.22c-12.636 1.004-25.478.942-37.849 3.326-11.259 2.17-22.649 5.745-32.817 10.967-12.647 6.494-23.944 15.35-33.441 26.418-9.932 11.575-18.006 24.218-23.195 38.393-6.699 18.299-8.793 37.27-6.318 56.831 2.175 17.188 7.29 33.302 16.311 47.902 6.438 10.421 14.451 19.713 23.948 27.821 10.398 8.877 21.655 16.244 34.313 20.924 19.829 7.331 40.328 12.121 61.702 9.097 12.62-1.786 25.368-3.597 37.587-7.061 17.76-5.035 32.99-15.203 46.446-27.707 13.882-12.9 23.133-28.898 28.74-46.918 3.901-12.535 6.948-25.25 7.144-38.551.152-10.321-1.583-20.231-3.95-30.23-4.459-18.833-13.569-35.324-26.105-49.518-12.087-13.685-26.976-24.132-44.236-31.067-14.467-5.812-29.29-9.207-45.548-9.817-.735-.045-1.47-.09-2.733-.812m826.081 2.008l-16.5-.143c-9.365.037-18.73.074-28.748-.038-.441.05-.883.099-2.229.031-3.04.039-6.08.079-10.029-.039l-11.862.049a37.52 37.52 0 0 1-4.155-.045l-20.973.05-10.499-.028c-7.011.034-7.594.627-7.594 7.763L874 761.298v5.246c3.87.531 7.107 1.32 10.353 1.36l36.494.076c3.686.021 5.201-1.219 5.167-5.243l-.058-63.991v-5.738l48.95.14c1.301.017 3.01 1.76 3.799 3.124l34.824 60.973c4.274 7.79 9.778 11.223 18.69 10.824 11.808-.529 23.659-.055 35.489-.177 2.45-.025 4.893-.773 8.24-1.341l-49.548-79.502 15.983-10.793c9.527-6.063 16.004-14.899 21.533-24.342 10.175-17.379 11.719-36.268 9.188-55.944-1.86-14.45-7.724-27.155-16.328-38.356-8.76-11.404-20.657-18.929-34.441-23.769-11.575-4.065-23.347-3.824-35.744-4.616M864.585 246.124l19.92 17.862 24.558 21.521 35.208 30.289 25.695 22.603 26.794 22.826c9.964 8.321 19.789 16.841 30.146 24.648 12.849 9.685 28.14 12.781 43.771 14.058 13.625 1.113 26.585-2.268 38.407-8.701 9.879-5.375 19.105-11.987 28.439-18.318l30.502-21.322c4.802-3.273 10.27-4.306 15.272-.725 5.669 4.059 10.962 8.665 16.261 13.216l30.955 26.951 34.527 30.542c5.381 4.813 10.442 9.985 15.867 14.746 12.096 10.614 24.733 20.651 36.335 31.771 5.815 5.573 11.387 9.216 19.568 7.957 2.115-.326 4.324-.049 6.489-.049H1369c0-2.937-.276-5.278.056-7.529.755-5.124-1.11-8.831-5.054-12.062-5.739-4.7-11.233-9.703-16.742-14.676l-42.865-38.847-30.966-27.96-57.047-51.075c-14.103-12.696-30.622-16.922-49.156-14.536-.997.128-2.06-.249-3.404-.999-1.447-1.772-2.691-3.769-4.374-5.278l-24.264-21.404-39.705-36.679-31.357-29.363c-3.198-3.012-6.14-6.301-9.401-9.239l-25.307-22.441-18.217-16.304c-2.909-2.637-6.31-5.03-5.119-9.89 3.74-15.254-2.991-28.83-14.487-36.19-12.244-7.839-25.521-8.001-38.393-.191-10.806 6.556-15.178 16.863-15.989 28.711-.312 4.559-1.384 7.399-5.562 9.062-1.193.475-2.231 1.35-3.324 2.067l-53.481 34.229-25.247-21.367-23.357-20.948-40.435-34.839-29.432-26.329-46.775-41.026c-7.81-7.125-15.788-13.255-26.642-14.451-11.7-1.289-23.093-.714-32.481 7.462-6.746 5.875-12.939 12.381-19.469 18.509l-26.922 24.998-28.194 26.217-56.014 52.999-29.768 28.29-31.778 29.292-23.979 22.9c-2.918 2.762-6.012 5.339-9.246 8.194l-19.253-13.982c-14.452-10.777-28.461-22.197-43.361-32.31-19.985-13.565-45.903-12.703-64.453 4.52l-55.914 52.872c-5.328 5.062-10.38 10.417-15.755 15.425l-33.029 30.41-34.289 33.158-27.853 25.912-44.705 41.684-24.114 22.171-22.55 21.428c-4.351 3.996-6.221 8.591-5.941 14.516.171 3.609 1.116 5.011 4.891 4.954l36.489-.197c2.375-.054 5.198-1.223 6.986-2.811 9.291-8.252 18.36-16.758 27.42-25.266l37.438-35.414 45.704-43.703 29.49-28.397c9.843-9.183 20.072-17.95 29.955-27.091l35.127-33.07 32.306-30.234c9.251-8.427 13.452-9.907 23.04-4.795 5.73 3.055 10.841 7.321 16.068 11.258l24.159 18.622 29.774 22.289 38.786 29.457c13.35 9.704 27.085 18.878 40.232 28.968l-31.489 6.654-42.007 8.737-68.023 15.203c-3.858.838-7.885 3.121-11.947-.396-5.459-4.727-11.733-7.89-19.001-9.275-17.587-3.351-33.399 5.579-39.016 22.164-4.64 13.7-3.433 26.767 7.311 39.009 11.59 13.206 33.983 13.853 47.269 4.993 6.833-4.557 9.786-11.536 13.519-18.245 1.316-2.364 4.255-4.637 6.878-5.317 9.43-2.446 19.042-4.185 28.582-6.208l56.272-11.961 31.898-7.039 50.517-10.84 30.871-7.101 61.538-13.006 22.851-5.058 25.229-5.717c.63.695 1.771 1.679 2.58 2.886 11.139 16.614 34.083 22.135 50.979 11.122 1.39-.906 4.17-1.358 5.369-.58 4.615 2.996 8.848 6.58 13.226 9.941l42.361 32.498 20.73 15.624 35.227 27.354 22.564 17.319c3.847 2.819 7.92 6.682 12.244 7.217 9.026 1.117 18.287.38 27.45.282 1.108-.012 2.622-.463 3.239-1.259 2.705-3.493 1.137-15.056-2.386-17.8l-22.01-16.835-48.24-36.968-34.047-25.546-40.407-31.555-18.74-14.619c1.399-1.248 1.935-1.869 2.596-2.294l42.216-27.093 34.284-22.995 35.518-23.281a167.31 167.31 0 0 1 16.83-9.574M760.498 823c-2.5 0-4.999-.006-7.499.001-5.709.016-6.993.989-6.935 6.921l.914 44.314c.063 3.036.009 6.074.009 9.111-3.633-3.005-6.079-6.261-8.603-9.455l-33.682-42.403c-2.579-3.183-5.66-7.395-9.132-8.109-6.379-1.311-13.219-.374-20.429-.374-.401 2.918-1.084 5.612-1.092 8.307L674 910.804l.009 16.498c.007 3.094 1.095 4.869 4.676 4.755 6.493-.206 12.997-.122 19.495-.032 2.775.038 4.083-1.103 3.804-3.867-.28-2.776-.922-5.54-.939-8.313l-.027-46.118c.002-1.028.258-2.055.501-3.866l14.034 18.185 31.743 40.377c1.455 1.804 4.309 3.16 6.659 3.418 4.775.525 9.648.163 14.481.158 6.488-.007 6.558-.058 6.56-6.816l-.001-88.488c-.009-15.203 1.598-13.673-14.497-13.695m-203.02 42.981l-12.129-16.092c-5.489-6.967-10.994-13.934-16.816-20.62-2.172-2.495-5.053-5.553-7.962-5.982-6.197-.915-12.631-.44-18.95-.141-1.244.059-3.267 1.753-3.452 2.925-.714 4.543-1.105 9.179-1.124 13.783l.018 72.491c.042 6.393.874 12.781 1.377 19.638 8.227 0 16.356.151 24.465-.18 1.081-.044 2.855-2.478 2.949-3.895.354-5.309.151-10.656.143-15.989l-.053-24.496-.002-18.907 7.708 9.609 22.883 28.992 15.522 20.305c1.474 1.846 3.658 4.19 5.67 4.347 6.902.538 13.872.207 20.386.207.517-.69.697-.819.698-.948l.206-104.476c.008-2.998-1.592-3.606-4.135-3.571-5.498.076-11.01.236-16.494-.05-4.103-.214-5.526 1.115-5.473 5.357L573 879.28v5.666l-15.523-18.964M372.485 822c-12.802-.649-24.885 2.678-34.721 10.365-18.405 14.385-25.752 37.291-20.28 60.53 5.267 22.369 23.095 38.177 46.287 40.934 16.879 2.007 33.074-1.312 46.211-12.713 5.665-4.916 10.015-11.661 13.94-18.19 5.266-8.759 5.229-18.817 5.122-28.78-.164-15.276-6.954-27.726-17.501-37.776-10.394-9.905-23.455-14.711-39.059-14.37m544.905 1c-22.156 0-44.312.035-66.467-.039-3.107-.01-5.191.434-4.988 4.269.213 4.024.064 8.067.064 12.101l.001 86.957v5.314h79.999c0-6.214-.18-12.039.064-17.847.16-3.805-1.359-4.857-4.977-4.818l-42.478.062c-1.76 0-3.519 0-5.34 0v-21.09h44.728l.038-18.021c.074-3.185-1.486-3.972-4.314-3.919-5.828.109-11.66.031-17.491.031h-22.831v-19.174H926V830.52c-.001-7.512-.002-7.512-8.61-7.52m110.433 45.572c3.868-17.524 19.984-27.257 36.883-21.63 6.364 2.119 9.646 7.289 13.434 11.933 1.934 2.372 3.376 2.466 5.714 1.174 4.74-2.62 9.463-5.297 14.355-7.606 3.348-1.58 3.458-3.696 1.787-6.347-6.082-9.643-13.728-17.358-24.879-21.217-7.987-2.764-16.113-3.058-24.387-2.899-15.187.293-28.029 6.55-37.551 17.706-13.936 16.328-17.515 35.867-11.465 56.34 5.299 17.933 17.205 29.872 35.791 35.092 18.771 5.271 36.397 4.084 52.579-7.255 5.314-3.723 10.102-8.379 12.109-15.086-4.196-2.709-7.96-5.334-11.907-7.646-7.151-4.188-7.19-4.104-12.744 1.807-.679.722-1.447 1.375-2.239 1.974-7.06 5.335-14.915 6.483-23.568 5.185-9.623-1.443-16.559-6.017-21.056-14.731-4.32-8.372-3.997-17.177-2.859-26.794m-856.337 53.425c18.953 16.63 63.392 19.676 81.874-12.924l-13.657-9.052c-4.38-2.93-7.38-1.443-10.699 2.281-8.706 9.768-24.527 10.807-35.298 4.778-17.574-9.837-17.972-35.876-9.752-48.568 5.403-8.343 13.125-13.466 22.786-13.231 9.246.225 18.012 3.488 22.695 12.753 1.241 2.454 2.763 3.872 5.415 2.528 5.092-2.581 10.228-5.142 15-8.243 1.193-.775 2.019-3.996 1.404-5.376-4.854-10.896-13.664-17.636-24.502-21.934-7.669-3.041-15.734-3.361-23.852-3.004-12.429.546-23.399 4.984-32.576 13.259-17.397 15.688-22.041 35.48-17.242 57.774 2.477 11.509 8.439 21.161 18.405 28.959M1190 874.5V932c7.877 0 15.028-.261 22.148.094 4.62.23 5.994-1.245 5.953-5.904l-.102-73.405v-5.922h29.996l.038-20.017c.063-3.211-1.558-3.881-4.349-3.875-26.466.052-52.932-.016-79.397.163-1.41.01-3.963 1.864-4.023 2.966-.373 6.887-.188 13.804-.188 21.109H1190v27.29z"/><path fill="#1780b0" d="M492.167 354.999l-40.651-28.284c-13.129-9.543-25.839-19.661-38.786-29.457l-29.774-22.289-24.159-18.622c-5.227-3.937-10.338-8.203-16.068-11.258-9.589-5.112-13.789-3.632-23.04 4.795l-32.306 30.234-35.127 33.07-29.955 27.091c-9.977 9.308-19.642 18.95-29.49 28.397l-45.704 43.703-37.438 35.414-27.42 25.266c-1.788 1.588-4.61 2.756-6.986 2.811-12.158.278-24.328.014-36.489.197-3.775.057-4.72-1.345-4.891-4.954-.28-5.925 1.59-10.519 5.941-14.516 7.636-7.013 14.977-14.345 22.55-21.428l24.114-22.171 44.705-41.684 27.853-25.912 34.289-33.158 33.029-30.41c5.376-5.009 10.428-10.363 15.755-15.425l55.914-52.872c18.55-17.224 44.468-18.085 64.453-4.52 14.899 10.113 28.909 21.534 43.361 32.31l19.253 13.982c3.234-2.856 6.328-5.432 9.246-8.194l23.979-22.9 31.778-29.292 29.768-28.29 56.014-52.999 28.194-26.217 26.922-24.998c6.53-6.128 12.723-12.634 19.469-18.509 9.387-8.176 20.781-8.751 32.481-7.462 10.854 1.196 18.831 7.326 26.642 14.451 15.319 13.974 31.207 27.323 46.775 41.026l29.432 26.329 40.435 34.839c7.886 6.868 15.471 14.081 23.357 20.948l25.269 21.952c-1.022 1.324-2.047 2.093-3.112 2.798l-31.141 20.288-28.712-23.769c-8.428-7.338-16.412-15.182-24.769-22.604l-39.789-34.89-20.142-18.048-40.861-34.975c-4.453-3.844-11.517-5.316-16.008-2.407-3.562 2.307-6.892 5.064-9.992 7.975l-37.638 35.737-32.467 30.185-32.346 30.357-46.064 44.015c-1.3 1.24-2.834 2.231-4.164 3.442l-23.562 21.587-22.75 21.58c-2.218 2.085-3.691 3.403-.007 5.984 12.848 9 25.418 18.396 38.06 27.689l44.242 33.011-38.937 9.105c-4.115.927-8.352 1.312-12.534 1.945z"/><path fill="#f97316" d="M840.954 219.149l30.796-20.359c1.066-.705 2.09-1.474 3.322-2.518l53.25-35.094c1.093-.716 2.131-1.592 3.324-2.067 4.178-1.664 5.25-4.503 5.562-9.062.811-11.848 5.184-22.154 15.989-28.711 12.872-7.81 26.148-7.648 38.393.191 11.496 7.36 18.228 20.936 14.487 36.19-1.192 4.86 2.21 7.252 5.119 9.89l18.217 16.304 25.307 22.441c3.261 2.938 6.204 6.227 9.401 9.239l31.357 29.363 39.705 36.679c7.972 7.262 16.233 14.206 24.264 21.404 1.683 1.508 2.927 3.506 4.313 5.881-10.282 5.907-20.505 11.21-31.042 16.326-1.008-.6-1.798-.906-2.376-1.441l-28.64-26.598-39.975-36.983-41.035-38.058-36.231-34.27c-3.525-3.394-7.462-4.308-12.104-3.907-2.824.244-5.868.63-8.491-.14-3.625-1.065-6.516-.757-9.576 1.4-5.254 3.703-10.667 7.181-16.048 10.701l-24.858 16.148a477.31 477.31 0 0 1-14.728 9.105l-33.418 22.168c-.668.452-.856 1.614-1.267 2.446l-16.216 9.881-35.518 23.281-34.284 22.995-42.216 27.093c-.661.425-1.197 1.046-2.596 2.294l18.74 14.619 40.407 31.555 34.047 25.546 48.24 36.968 22.01 16.835c3.523 2.744 5.09 14.306 2.386 17.8-.617.796-2.131 1.247-3.239 1.259-9.163.098-18.424.835-27.45-.282-4.324-.535-8.396-4.398-12.244-7.217-7.646-5.602-15.071-11.508-22.564-17.319l-35.227-27.354-20.73-15.624-42.361-32.498c-4.378-3.361-8.611-6.945-13.226-9.941-1.199-.778-3.979-.326-5.369.58-16.897 11.013-39.84 5.492-50.979-11.122-.809-1.207-1.95-2.191-2.58-2.886l-25.229 5.717-22.851 5.058-61.538 13.006-30.871 7.101-50.517 10.84-31.898 7.039-56.272 11.961c-9.54 2.023-19.153 3.762-28.582 6.208-2.622.68-5.562 2.952-6.878 5.317-3.734 6.71-6.686 13.689-13.519 18.245-13.287 8.86-35.68 8.212-47.269-4.993-10.744-12.242-11.951-25.309-7.311-39.009 5.617-16.586 21.429-25.515 39.016-22.164 7.269 1.385 13.542 4.547 19.001 9.275 4.062 3.517 8.089 1.234 11.947.396l68.023-15.203 42.007-8.737 31.699-6.996c4.391-.975 8.628-1.36 12.743-2.287l39.341-9.064 17.379-3.737 42.335-9.245 52.388-11.239c1.491-.334 2.813-2.4 3.773-3.936 2.567-4.108 4.275-8.917 7.428-12.467 11.59-13.049 33.173-14.751 47.494-5.465 1.638 1.062 2.931 3.087 5.961 1.024 12.975-8.835 26.32-17.123 39.452-25.729l38.74-25.725 41.962-28.322z"/><path d="M913.992 529.201c1.077-.038 2.154-.076 3.993.114 4.511.112 8.259-.004 12.007-.12 3.04-.039 6.08-.079 9.755.058 1.172.098 1.71.02 2.247-.058l28.932.118c5.956.354 11.075.478 16.194.602 11.866.105 23.638-.136 35.213 3.929 13.784 4.841 25.681 12.365 34.441 23.769 8.603 11.201 14.468 23.906 16.328 38.356 2.532 19.676.988 38.564-9.187 55.944-5.528 9.442-12.006 18.279-21.533 24.342-5.054 3.216-9.94 6.698-15.983 10.793l49.548 79.502c-3.347.568-5.79 1.316-8.24 1.341-11.83.122-23.681-.352-35.489.177-8.912.399-14.416-3.034-18.69-10.824-11.258-20.517-23.102-40.714-34.824-60.973-.789-1.364-2.498-3.106-3.799-3.124l-48.95-.14v5.738l.058 63.991c.033 4.024-1.482 5.264-5.167 5.243-12.165-.07-24.331.073-36.494-.076-3.246-.04-6.482-.828-10.353-1.36v-5.246l.002-224.472c0-7.135.583-7.728 7.594-7.763 3.5-.017 6.999.017 11.335.259 7.578.113 14.319-.004 21.061-.121m21.537 118.802l27.371-.934c9.363-.164 18.771.492 28.087-.191 10.489-.77 20.359-4.88 25.414-14.31 5.086-9.487 7.87-20.062 3.871-31.302-2.544-7.152-5.217-14.281-12.354-17.538-5.51-2.514-11.804-4.376-17.807-4.552-19.464-.57-38.955-.224-58.435-.251-1.773-.002-3.545-.151-5.391-.235v69.313h9.243zM163.961 528.17c15.538.471 30.362 3.866 44.828 9.679 17.26 6.934 32.149 17.381 44.236 31.067 12.537 14.194 21.647 30.684 26.105 49.518 2.367 9.999 4.102 19.908 3.95 30.23-.196 13.3-3.244 26.016-7.144 38.551-5.607 18.02-14.858 34.018-28.74 46.918-13.456 12.504-28.686 22.672-46.446 27.707-12.219 3.464-24.967 5.275-37.587 7.061-21.373 3.025-41.873-1.766-61.702-9.097-12.658-4.68-23.916-12.047-34.313-20.924-9.497-8.108-17.51-17.401-23.948-27.821-9.02-14.6-14.136-30.714-16.311-47.902-2.476-19.561-.381-38.532 6.318-56.831 5.189-14.175 13.263-26.818 23.195-38.393 9.497-11.068 20.794-19.924 33.441-26.418 10.169-5.221 21.558-8.797 32.817-10.967 12.371-2.384 25.212-2.322 37.679-2.968-2.457.504-4.744.65-7.032.796l.104 1.211h12.443l-1.894-1.415m52.113 168.489c3.526-6.592 7.686-12.928 10.463-19.822 9.456-23.471 7.334-46.258-6.017-67.688-9.084-14.582-21.714-25.176-38.267-30.592-13.154-4.304-26.509-5.515-40.351-3.711-22.394 2.919-39.959 13.521-52.365 32.13-11.12 16.682-13.632 35.394-10.564 54.964 4.506 28.75 20.035 48.456 47.809 58.128 14.958 5.209 30.291 5.24 45.56 2.612 10.793-1.858 21.223-5.532 29.871-12.711 4.764-3.955 9.137-8.382 13.862-13.31zm1127.925-167.49l8.77.549c1.417.107 2.825.346 4.632 1.372-32.947 34.629-67.112 67.634-101.659 100.331l101.524 135.114c-19.18 1.487-37.858 2.372-56.499.269-2.41-.272-5.044-2.789-6.687-4.942l-33.904-45.261-21.188-28.712-17.98-23.91c-.772.633-1.811 1.354-2.696 2.23l-21.926 21.685c-2.673 2.534-3.479 5.175-3.457 8.738l.034 64.498c-.006 6.352-.477 6.791-6.869 6.79-12.833-.001-25.666-.004-38.499.011-6.747.008-7.565-.739-7.564-7.25l.075-209.495c.007-6.274.402-12.568 1.074-18.804.131-1.219 2.363-3.144 3.651-3.164 13.494-.208 26.998-.293 40.49.007 7.587.169 7.607.521 7.614 8.261l.055 90.498v5.619l7.815-8.844 14.113-15.148 74.414-76.878c2.378-2.415 7.088-3.401 10.762-3.514 12.987-.399 25.995-.129 39.726.092 1.881.089 3.03-.027 4.179-.142zm-896.025 49.902l-100.958-.115-23.657-.001V529.88c5.29-.268 10.507-.532 16.339-.587.837.402 1.072.574 1.678.933 2.329.41 4.303.794 6.276.795l121.482-.071c1.947-.003 3.893-.572 5.861-1.09.021-.212.041-.638.041-.638l41.924-.143c0 14.58.966 27.823-.457 40.804-.601 5.483-5.902 10.67-9.65 15.544-7.811 10.158-15.941 20.075-24.073 29.981-5.812 7.08-11.876 13.954-17.764 20.972l-26.948 32.296-17.917 21.59-22.194 26.299c-.689.821-1.06 1.908-1.906 3.478h9.446l105.442-.092c4.83-.025 6.25 1.42 6.138 6.224-.31 13.31-.107 26.633-.107 40.611-2.76.394-5.426 1.105-8.093 1.107l-179.902.053c-5.472 0-6.944-1.236-6.852-6.589.168-9.774.467-19.551 1.014-29.309.098-1.755 1.373-3.659 2.573-5.105l36.101-43.162 36.82-43.909 31.241-38.145 17.96-21.637c.762-.525 1.019-.828 1.276-1.132l-1.134.117zM695 529.223h28.069l95.974 237.788c-5.555.367-9.898.84-14.247.904-8.828.129-17.66.13-26.487-.011-3.606-.057-7.275-.31-10.771-1.108-1.345-.307-2.763-2.19-3.342-3.67l-18.451-47.442c-.571-1.417-3.536-2.637-5.398-2.65l-71.468-.077c-6.703.003-13.412-.175-20.102.112-1.285.055-3.124 1.644-3.643 2.949l-18.986 48.238c-.675 1.662-3.488 3.465-5.328 3.486-15.852.184-31.708-.027-48.648-.127l11.454-28.69 16.345-40.962 28.978-71.797 22.151-57.084c4.839-12.309 9.771-24.59 15.129-36.676.76-1.714 4.1-2.937 6.377-3.186 4.444-.486 8.98-.122 14.279.11 3.239.111 5.677.002 8.114-.108m-16.494 137.86h48.426l-32.533-81.563-31.283 81.564 15.389-.002z" fill="#0662dd"/><path d="M864.278 245.97c.104-.985.292-2.148.96-2.6 10.989-7.43 22.039-14.771 33.559-21.873l38.704 34.515 29.394 26.312 44.814 38.895 31.738 27.598c14.67 12.042 30.933 13.823 47.739 5.008 9.258-4.856 18.058-10.648 26.771-16.459 5.315-3.545 10.071-7.927 15.079-11.934l30.882-16.21c1.249-.157 2.311.22 3.308.092 18.534-2.386 35.053 1.84 49.156 14.536l57.047 51.075 30.966 27.96 42.865 38.847c5.509 4.973 11.003 9.977 16.742 14.676 3.944 3.23 5.81 6.937 5.054 12.062-.332 2.251-.056 4.592-.056 7.529h-25.701c-2.166 0-4.374-.277-6.489.049-8.181 1.26-13.753-2.383-19.568-7.957-11.603-11.121-24.24-21.157-36.335-31.771-5.425-4.76-10.486-9.933-15.867-14.746l-34.527-30.542-30.955-26.951c-5.299-4.551-10.592-9.157-16.261-13.216-5.002-3.582-10.47-2.548-15.272.725l-30.502 21.322c-9.334 6.332-18.56 12.943-28.439 18.318-11.822 6.432-24.782 9.814-38.407 8.701-15.631-1.277-30.922-4.373-43.771-14.058-10.357-7.807-20.183-16.327-30.146-24.648l-26.794-22.826-25.695-22.603-35.208-30.289-24.558-21.521-20.227-18.016zM760.989 823c15.604.022 13.997-1.508 14.006 13.695l.001 88.488c-.002 6.758-.072 6.809-6.56 6.816-4.833.005-9.706.367-14.481-.158-2.35-.258-5.203-1.614-6.659-3.418l-31.743-40.377-14.034-18.185c-.243 1.811-.499 2.838-.501 3.866l.027 46.118c.017 2.772.659 5.537.939 8.313.279 2.764-1.029 3.905-3.804 3.867-6.498-.09-13.002-.174-19.495.032-3.582.114-4.669-1.662-4.676-4.755L674 910.804l.048-79.489c.008-2.696.691-5.389 1.092-8.307 7.21 0 14.051-.937 20.429.374 3.472.714 6.552 4.926 9.132 8.109l33.682 42.403c2.524 3.194 4.97 6.45 8.603 9.455l-.009-9.111-.914-44.314c-.058-5.932 1.227-6.905 6.935-6.921l7.99-.001zm-203.255 43.234L573 884.945v-5.666l-.086-50.993c-.052-4.242 1.37-5.57 5.473-5.357 5.485.286 10.996.126 16.494.05 2.543-.035 4.143.573 4.135 3.571l-.206 104.476c0 .129-.181.258-.698.948-6.515 0-13.484.331-20.386-.207-2.011-.157-4.196-2.501-5.67-4.347-5.314-6.656-10.286-13.584-15.522-20.305l-22.883-28.992-7.708-9.609.002 18.907.053 24.496c.008 5.333.211 10.68-.143 15.989-.094 1.417-1.868 3.851-2.949 3.895-8.109.331-16.238.18-24.465.18-.503-6.857-1.335-13.245-1.377-19.638l-.018-72.491a91.5 91.5 0 0 1 1.124-13.783c.184-1.173 2.207-2.867 3.452-2.925 6.319-.299 12.753-.774 18.95.141 2.908.43 5.789 3.487 7.962 5.982 5.821 6.686 11.327 13.653 16.816 20.62 4.156 5.275 8.094 10.722 12.386 16.346zM372.969 822c15.119-.341 28.18 4.466 38.574 14.37 10.546 10.05 17.337 22.5 17.501 37.776.107 9.964.144 20.021-5.122 28.78-3.925 6.529-8.275 13.274-13.94 18.19-13.136 11.401-29.332 14.719-46.211 12.713-23.192-2.757-41.02-18.565-46.287-40.934-5.472-23.238 1.875-46.145 20.28-60.53 9.835-7.687 21.918-11.015 35.205-10.365m-18.236 29.071c-1.924 2.026-4.125 3.856-5.721 6.114-5.825 8.238-5.826 17.433-5.265 27.175.59 10.233 10.379 22.941 21.199 25.359 14.018 3.132 26.824-3.217 32.123-12.884 5.527-10.082 6.656-20.717 2.695-31.271-1.989-5.299-5.444-10.831-9.796-14.307-11.002-8.788-22.92-8.15-35.236-.186zM917.874 823c8.124.008 8.125.008 8.126 7.52v16.306h-52.601V866h22.831l17.491-.031c2.828-.053 4.388.734 4.314 3.919-.135 5.802-.038 11.61-.038 18.021h-44.728V909h5.34l42.478-.062c3.617-.039 5.136 1.013 4.977 4.818-.243 5.808-.064 11.633-.064 17.847h-80v-5.314l-.001-86.957c0-4.035.149-8.078-.064-12.101-.203-3.835 1.88-4.279 4.988-4.269l66.951.039zm109.689 45.92c-.878 9.27-1.201 18.075 3.119 26.447 4.497 8.714 11.433 13.289 21.056 14.731 8.653 1.297 16.507.149 23.568-5.185.792-.598 1.56-1.251 2.239-1.974 5.554-5.911 5.593-5.996 12.744-1.807 3.947 2.312 7.711 4.937 11.907 7.646-2.007 6.707-6.796 11.363-12.109 15.086-16.183 11.339-33.809 12.526-52.579 7.255-18.586-5.22-30.491-17.159-35.791-35.092-6.05-20.473-2.471-40.012 11.465-56.34 9.522-11.156 22.364-17.413 37.551-17.706 8.274-.16 16.399.135 24.387 2.899 11.151 3.859 18.797 11.574 24.879 21.217 1.672 2.651 1.561 4.767-1.787 6.347-4.893 2.309-9.615 4.987-14.355 7.606-2.337 1.292-3.779 1.198-5.714-1.174-3.788-4.645-7.07-9.815-13.434-11.933-16.9-5.627-33.016 4.107-37.144 21.978zm-856.34 52.828c-9.704-7.549-15.665-17.2-18.143-28.709-4.799-22.294-.155-42.086 17.242-57.774 9.177-8.276 20.147-12.713 32.576-13.259 8.118-.357 16.183-.037 23.852 3.004 10.838 4.298 19.649 11.037 24.502 21.934.615 1.38-.211 4.6-1.404 5.376-4.772 3.101-9.908 5.662-15 8.243-2.652 1.344-4.174-.073-5.415-2.528-4.683-9.265-13.449-12.528-22.695-12.753-9.661-.235-17.383 4.888-22.786 13.231-8.219 12.692-7.821 38.731 9.752 48.568 10.77 6.029 26.592 4.99 35.298-4.778 3.319-3.724 6.319-5.211 10.699-2.281l13.657 9.052c-18.482 32.6-62.92 29.554-82.136 12.675zM1190 874v-26.79h-29.923c0-7.305-.185-14.223.188-21.109.06-1.102 2.613-2.957 4.023-2.966l79.397-.163c2.79-.005 4.411.664 4.349 3.875-.127 6.47-.038 12.943-.038 20.017H1218v5.922l.102 73.405c.041 4.658-1.334 6.134-5.953 5.904-7.12-.355-14.272-.094-22.148-.094v-58z" fill="#1780b0"/><path fill="#0855c0" d="M341.019 530.02c-.25-.154-.486-.326-.863-.672l53.179-.343 81.236.132c.464.084.445.51-.042.711l-133.51.172z"/><path fill="#2368dc" d="M163.602 528.101c.858.441 1.356.813 2.254 1.484h-12.443l-.104-1.211 7.296-.457a32.27 32.27 0 0 1 2.998.184z"/><path d="M913.53 529.121c-6.279.197-13.021.314-20.134.262 6.31-.227 12.991-.284 20.134-.262zm73.326.451c-4.853.22-9.972.096-15.461-.198 4.818-.162 10.007-.154 15.461.198zm-57.317-.456a155.83 155.83 0 0 1-11.153.259c3.325-.224 7.011-.281 11.153-.259z" fill="#0858c7"/><path fill="#0854be" d="M694.563 529.138c-2.001.194-4.439.304-7.212.249 2.035-.221 4.405-.277 7.212-.249z"/><path fill="#0659c9" d="M447.969 579.296c.381-.262.759-.301 1.137-.34-.256.303-.513.606-.982.958-.213.049-.158-.394-.155-.618z"/><path fill="#0856c3" d="M1343.604 529.099c-.755.188-1.904.303-3.318.27.798-.213 1.861-.278 3.318-.27z"/><path fill="#0858c7" d="M941.669 529.121c-.211.153-.749.231-1.468.192.259-.167.7-.217 1.468-.192z"/><path d="M840.608 219.078l-41.616 28.393-38.74 25.725-39.452 25.729c-3.029 2.063-4.323.038-5.961-1.024-14.321-9.287-35.904-7.584-47.494 5.465-3.153 3.55-4.861 8.358-7.428 12.467-.96 1.536-2.282 3.602-3.773 3.936l-52.388 11.239-42.335 9.245-16.987 3.657-45.039-32.972-38.06-27.689c-3.685-2.581-2.211-3.899.007-5.984l22.75-21.58 23.563-21.587c1.33-1.211 2.865-2.202 4.164-3.442l46.064-44.015 32.346-30.357 32.467-30.185 37.638-35.737c3.1-2.911 6.43-5.668 9.992-7.975 4.492-2.909 11.555-1.437 16.008 2.407l40.861 34.975c6.82 5.893 13.377 12.09 20.142 18.048l39.789 34.89 24.769 22.604c9.291 8.089 18.897 15.814 28.712 23.769zm292.111 106.167c-4.691 4.194-9.448 8.576-14.763 12.121-8.712 5.811-17.512 11.603-26.771 16.459-16.806 8.814-33.07 7.034-47.739-5.008-10.832-8.892-21.156-18.401-31.738-27.598l-44.814-38.895-29.394-26.312-38.36-34.551c4.656-3.315 9.479-6.295 14.244-9.364l24.858-16.148 16.048-10.701c3.061-2.157 5.952-2.465 9.576-1.4 2.624.771 5.667.385 8.491.14 4.642-.402 8.579.513 12.104 3.907l36.231 34.27 41.035 38.058 39.975 36.983 28.64 26.598c.578.535 1.368.841 2.376 1.441zm-197.68 322.757h-8.752V578.69l5.391.235 58.435.251c6.003.176 12.296 2.038 17.807 4.552 7.137 3.257 9.81 10.385 12.354 17.538 3.999 11.24 1.215 21.815-3.871 31.302-5.056 9.43-14.926 13.541-25.414 14.31-9.316.684-18.724.027-28.087.191-9.126.16-18.248.611-27.862.934zm-719.052 49.015c-4.637 4.571-9.01 8.998-13.774 12.953-8.648 7.18-19.078 10.854-29.871 12.711-15.269 2.628-30.602 2.597-45.56-2.612-27.774-9.671-43.303-29.378-47.809-58.128-3.067-19.57-.556-38.283 10.564-54.964 12.406-18.61 29.971-29.211 52.365-32.13 13.842-1.804 27.197-.594 40.351 3.711 16.553 5.416 29.183 16.01 38.267 30.592 13.351 21.431 15.473 44.217 6.017 67.688-2.777 6.893-6.937 13.23-10.551 20.179z"/><path fill="#2b69da" d="M341.375 530.225l133.133-.165c-1.481.317-3.427.886-5.375.889l-121.482.071c-1.974-.001-3.947-.384-6.276-.795z"/><path d="M678.007 667.084l-14.891.001 31.283-81.564 32.533 81.563-48.925.001zm-322.913 183.9c11.956-7.877 23.874-8.515 34.875.273 4.351 3.475 7.807 9.008 9.796 14.307 3.961 10.554 2.832 21.189-2.695 31.271-5.3 9.667-18.105 16.016-32.123 12.884-10.82-2.418-20.609-15.126-21.199-25.359-.561-9.742-.56-18.938 5.265-27.175 1.596-2.258 3.798-4.088 6.081-6.201z"/></svg>